<svg width="150" height="143" viewBox="0 0 150 143" fill="none" xmlns="http://www.w3.org/2000/svg">
<path d="M9.93763 142H2.08252V116.546H10.2856C12.7549 116.546 14.8678 117.055 16.6244 118.074C18.3811 119.085 19.7275 120.539 20.6638 122.437C21.6002 124.326 22.0683 126.588 22.0683 129.223C22.0683 131.875 21.596 134.157 20.6514 136.071C19.7068 137.977 18.3313 139.444 16.525 140.471C14.7186 141.49 12.5229 142 9.93763 142ZM5.16491 139.266H9.73877C11.8434 139.266 13.5876 138.86 14.9714 138.048C16.3551 137.236 17.3867 136.08 18.0662 134.58C18.7456 133.08 19.0854 131.295 19.0854 129.223C19.0854 127.168 18.7498 125.399 18.0786 123.916C17.4074 122.424 16.4048 121.281 15.0708 120.486C13.7368 119.682 12.0754 119.28 10.0868 119.28H5.16491V139.266Z" fill="white"/>
<path d="M27.2388 142V116.546H42.601V119.28H30.3212V127.881H41.8055V130.615H30.3212V139.266H42.7999V142H27.2388Z" fill="white"/>
<path d="M62.0772 122.909C61.928 121.65 61.3232 120.672 60.2626 119.976C59.202 119.28 57.9011 118.932 56.3599 118.932C55.233 118.932 54.2469 119.114 53.4018 119.479C52.5649 119.843 51.9103 120.345 51.438 120.983C50.974 121.621 50.742 122.346 50.742 123.158C50.742 123.837 50.9035 124.421 51.2267 124.91C51.5581 125.391 51.9807 125.793 52.4944 126.116C53.0082 126.431 53.5468 126.692 54.1102 126.899C54.6737 127.098 55.1915 127.259 55.6638 127.384L58.2491 128.08C58.9119 128.254 59.6494 128.494 60.4614 128.8C61.2817 129.107 62.0648 129.526 62.8105 130.056C63.5645 130.578 64.186 131.249 64.6749 132.069C65.1637 132.89 65.4082 133.896 65.4082 135.09C65.4082 136.465 65.0477 137.708 64.3268 138.818C63.6142 139.929 62.5702 140.811 61.1947 141.466C59.8275 142.12 58.1662 142.448 56.2107 142.448C54.3878 142.448 52.8093 142.153 51.4753 141.565C50.1495 140.977 49.1055 140.156 48.3432 139.104C47.5891 138.052 47.1624 136.83 47.063 135.438H50.2448C50.3277 136.399 50.6508 137.194 51.2143 137.824C51.786 138.445 52.5069 138.909 53.3769 139.216C54.2552 139.514 55.1998 139.663 56.2107 139.663C57.3873 139.663 58.4438 139.473 59.3801 139.092C60.3164 138.702 61.058 138.164 61.6049 137.476C62.1518 136.78 62.4252 135.968 62.4252 135.04C62.4252 134.195 62.1891 133.507 61.7168 132.977C61.2445 132.446 60.623 132.015 59.8524 131.684C59.0818 131.353 58.2491 131.063 57.3542 130.814L54.2221 129.919C52.2334 129.347 50.6591 128.531 49.4991 127.471C48.339 126.41 47.759 125.022 47.759 123.307C47.759 121.882 48.1443 120.639 48.9149 119.578C49.6938 118.509 50.7378 117.681 52.047 117.092C53.3645 116.496 54.8352 116.198 56.4593 116.198C58.0999 116.198 59.5583 116.492 60.8343 117.08C62.1103 117.66 63.1212 118.455 63.867 119.466C64.621 120.477 65.0187 121.625 65.0601 122.909H62.0772Z" fill="white"/>
<path d="M73.5585 116.546V142H70.4761V116.546H73.5585Z" fill="white"/>
<path d="M97.1393 124.5C96.8659 123.663 96.5055 122.913 96.058 122.25C95.6189 121.579 95.0927 121.008 94.4795 120.535C93.8747 120.063 93.1869 119.702 92.4163 119.454C91.6457 119.205 90.8006 119.081 89.8808 119.081C88.3728 119.081 87.0014 119.47 85.7668 120.249C84.5322 121.028 83.5503 122.176 82.8212 123.692C82.092 125.209 81.7274 127.069 81.7274 129.273C81.7274 131.477 82.0961 133.337 82.8336 134.853C83.571 136.37 84.5695 137.517 85.829 138.296C87.0884 139.075 88.5053 139.465 90.0797 139.465C91.538 139.465 92.8223 139.154 93.9327 138.532C95.0513 137.903 95.9213 137.016 96.5427 135.873C97.1725 134.721 97.4874 133.366 97.4874 131.808L98.432 132.007H90.7757V129.273H100.47V132.007C100.47 134.104 100.023 135.926 99.128 137.476C98.2414 139.025 97.015 140.227 95.449 141.08C93.8912 141.925 92.1015 142.348 90.0797 142.348C87.8259 142.348 85.8455 141.818 84.1386 140.757C82.44 139.697 81.1142 138.189 80.1614 136.233C79.2168 134.278 78.7445 131.957 78.7445 129.273C78.7445 127.259 79.0137 125.449 79.5523 123.841C80.0992 122.226 80.8698 120.85 81.8641 119.715C82.8584 118.58 84.035 117.71 85.394 117.105C86.7529 116.5 88.2485 116.198 89.8808 116.198C91.2231 116.198 92.4743 116.401 93.6344 116.807C94.8027 117.204 95.8426 117.772 96.754 118.509C97.6738 119.238 98.4402 120.113 99.0534 121.132C99.6666 122.143 100.089 123.265 100.321 124.5H97.1393Z" fill="white"/>
<path d="M125.934 116.546V142H122.951L109.08 122.014H108.832V142H105.75V116.546H108.732L122.653 136.581H122.901V116.546H125.934Z" fill="white"/>
<path d="M146.023 122.909C145.873 121.65 145.268 120.672 144.208 119.976C143.147 119.28 141.846 118.932 140.305 118.932C139.178 118.932 138.192 119.114 137.347 119.479C136.51 119.843 135.856 120.345 135.383 120.983C134.919 121.621 134.687 122.346 134.687 123.158C134.687 123.837 134.849 124.421 135.172 124.91C135.503 125.391 135.926 125.793 136.44 126.116C136.953 126.431 137.492 126.692 138.056 126.899C138.619 127.098 139.137 127.259 139.609 127.384L142.194 128.08C142.857 128.254 143.595 128.494 144.407 128.8C145.227 129.107 146.01 129.526 146.756 130.056C147.51 130.578 148.131 131.249 148.62 132.069C149.109 132.89 149.353 133.896 149.353 135.09C149.353 136.465 148.993 137.708 148.272 138.818C147.56 139.929 146.516 140.811 145.14 141.466C143.773 142.12 142.112 142.448 140.156 142.448C138.333 142.448 136.755 142.153 135.421 141.565C134.095 140.977 133.051 140.156 132.288 139.104C131.534 138.052 131.108 136.83 131.008 135.438H134.19C134.273 136.399 134.596 137.194 135.16 137.824C135.731 138.445 136.452 138.909 137.322 139.216C138.201 139.514 139.145 139.663 140.156 139.663C141.333 139.663 142.389 139.473 143.325 139.092C144.262 138.702 145.003 138.164 145.55 137.476C146.097 136.78 146.371 135.968 146.371 135.04C146.371 134.195 146.134 133.507 145.662 132.977C145.19 132.446 144.568 132.015 143.798 131.684C143.027 131.353 142.194 131.063 141.299 130.814L138.167 129.919C136.179 129.347 134.604 128.531 133.444 127.471C132.284 126.41 131.704 125.022 131.704 123.307C131.704 121.882 132.09 120.639 132.86 119.578C133.639 118.509 134.683 117.681 135.992 117.092C137.31 116.496 138.781 116.198 140.405 116.198C142.045 116.198 143.504 116.492 144.78 117.08C146.056 117.66 147.067 118.455 147.812 119.466C148.566 120.477 148.964 121.625 149.005 122.909H146.023Z" fill="white"/>
<path d="M78.6837 106V0H41.973C33.485 0 26.5178 1.41471 21.0713 4.24414C15.6248 7.03906 11.593 10.8864 8.97587 15.7861C6.35873 20.6859 5.05016 26.2585 5.05016 32.5039C5.05016 38.7493 6.35873 44.2874 8.97587 49.1182C11.593 53.9489 15.6071 57.7445 21.0182 60.5049C26.4293 63.2308 33.3435 64.5938 41.7608 64.5938H71.4689V53H42.1852C36.3851 53 31.7167 52.1719 28.18 50.5156C24.608 48.8594 22.0262 46.513 20.4347 43.4766C18.8078 40.4056 17.9944 36.748 17.9944 32.5039C17.9944 28.2598 18.8078 24.5505 20.4347 21.376C22.0616 18.2015 24.661 15.7516 28.2331 14.0264C31.8051 12.2666 36.5266 11.3867 42.3974 11.3867H65.5273V106H78.6837ZM27.5434 58.3828L0.806152 106H16.0846L42.3974 58.3828H27.5434Z" fill="white"/>
<path d="M65.7041 106V0H78.7109V51.344L135.983 39.1982V0H148.99V106H135.983V51.344L78.7109 63.4899V106H65.7041Z" fill="white"/>
</svg>
