<svg width="149" height="106" viewBox="0 0 149 106" fill="none" xmlns="http://www.w3.org/2000/svg">
<path d="M78.6837 106V0H41.973C33.485 0 26.5178 1.41471 21.0713 4.24414C15.6248 7.03906 11.593 10.8864 8.97587 15.7861C6.35873 20.6859 5.05016 26.2585 5.05016 32.5039C5.05016 38.7493 6.35873 44.2874 8.97587 49.1182C11.593 53.9489 15.6071 57.7445 21.0182 60.5049C26.4293 63.2308 33.3435 64.5938 41.7608 64.5938H71.4689V53H42.1852C36.3851 53 31.7167 52.1719 28.18 50.5156C24.608 48.8594 22.0262 46.513 20.4347 43.4766C18.8078 40.4056 17.9944 36.748 17.9944 32.5039C17.9944 28.2598 18.8078 24.5505 20.4347 21.376C22.0616 18.2015 24.661 15.7516 28.2331 14.0264C31.8051 12.2666 36.5266 11.3867 42.3974 11.3867H65.5273V106H78.6837ZM27.5434 58.3828L0.806152 106H16.0846L42.3974 58.3828H27.5434Z" fill="white"/>
<path d="M65.7041 106V0H78.7109V51.344L135.983 39.1982V0H148.99V106H135.983V51.344L78.7109 63.4899V106H65.7041Z" fill="white"/>
</svg>
