<svg width="535" height="409" viewBox="0 0 535 409" fill="none" xmlns="http://www.w3.org/2000/svg">
<circle cx="209.5" cy="107.5" r="39.5" fill="#A2C14A"/>
<line x1="211" y1="39" x2="211" y2="176" stroke="#A2C14A" stroke-width="4"/>
<line x1="278" y1="109" x2="141" y2="109" stroke="#A2C14A" stroke-width="4"/>
<line x1="259.414" y1="60.4142" x2="162.541" y2="157.288" stroke="#A2C14A" stroke-width="4"/>
<line x1="162.414" y1="57.5858" x2="259.288" y2="154.459" stroke="#A2C14A" stroke-width="4"/>
<path fill-rule="evenodd" clip-rule="evenodd" d="M72.9047 6.46098C67.8594 3.04338 61.4613 1 54.5 1C47.8045 1 41.63 2.89033 36.679 6.07559C33.3613 4.7441 29.657 4 25.7494 4C11.5284 4 0 13.8552 0 26.0123C0 38.1693 11.5284 48.0246 25.7494 48.0246C29.6662 48.0246 33.3788 47.277 36.7026 45.9395C41.6495 49.1157 47.8151 51 54.5 51C61.4511 51 67.8407 48.9626 72.8827 45.5539C76.4332 47.1325 80.4682 48.0247 84.7469 48.0247C98.9679 48.0247 110.496 38.1694 110.496 26.0124C110.496 13.8553 98.9679 4.00007 84.7469 4.00007C80.4771 4.00007 76.4499 4.88853 72.9047 6.46098Z" fill="#D9D9D9"/>
<path fill-rule="evenodd" clip-rule="evenodd" d="M496.905 48.461C491.859 45.0434 485.461 43 478.5 43C471.804 43 465.63 44.8903 460.679 48.0756C457.361 46.7441 453.657 46 449.749 46C435.528 46 424 55.8552 424 68.0123C424 80.1693 435.528 90.0246 449.749 90.0246C453.666 90.0246 457.379 89.277 460.703 87.9395C465.65 91.1157 471.815 93 478.5 93C485.451 93 491.841 90.9626 496.883 87.5539C500.433 89.1325 504.468 90.0247 508.747 90.0247C522.968 90.0247 534.496 80.1694 534.496 68.0124C534.496 55.8553 522.968 46.0001 508.747 46.0001C504.477 46.0001 500.45 46.8885 496.905 48.461Z" fill="#D9D9D9"/>
<path fill-rule="evenodd" clip-rule="evenodd" d="M523.534 219.25L324.781 1L209.758 127.307L149.028 59L7 218.75H126.484L126.028 219.25H523.534Z" fill="#D9D9D9"/>
<path fill-rule="evenodd" clip-rule="evenodd" d="M457.712 107.25L414.411 0L371.11 107.25H393.67L358.12 195.091H382.902L340 301.098H402.411V363H427.411V301.098H489.822L446.92 195.091H470.703L435.153 107.25H457.712Z" fill="#02370E"/>
<path fill-rule="evenodd" clip-rule="evenodd" d="M167.879 218.068L135.552 138L103.225 218.068H120.068L93.5273 283.646H112.029L80 362.787H126.593V409H145.257V362.787H191.851L159.822 283.646H177.577L151.037 218.068H167.879Z" fill="#02370E"/>
</svg>
