<svg width="550" height="495" viewBox="0 0 550 495" fill="none" xmlns="http://www.w3.org/2000/svg">
<rect x="2.5" y="2.5" width="534" height="490" stroke="white" stroke-width="5"/>
<circle cx="224.5" cy="121.5" r="39.5" fill="#A2C14A"/>
<line x1="226" y1="53" x2="226" y2="190" stroke="#A2C14A" stroke-width="4"/>
<line x1="293" y1="123" x2="156" y2="123" stroke="#A2C14A" stroke-width="4"/>
<line x1="274.414" y1="74.4142" x2="177.541" y2="171.288" stroke="#A2C14A" stroke-width="4"/>
<line x1="177.414" y1="71.5858" x2="274.288" y2="168.459" stroke="#A2C14A" stroke-width="4"/>
<path fill-rule="evenodd" clip-rule="evenodd" d="M87.9047 20.461C82.8594 17.0434 76.4613 15 69.5 15C62.8045 15 56.63 16.8903 51.679 20.0756C48.3613 18.7441 44.657 18 40.7494 18C26.5284 18 15 27.8552 15 40.0123C15 52.1693 26.5284 62.0246 40.7494 62.0246C44.6662 62.0246 48.3788 61.277 51.7026 59.9395C56.6495 63.1157 62.8151 65 69.5 65C76.4511 65 82.8407 62.9626 87.8827 59.5539C91.4332 61.1325 95.4682 62.0247 99.7469 62.0247C113.968 62.0247 125.496 52.1694 125.496 40.0124C125.496 27.8553 113.968 18.0001 99.7469 18.0001C95.4771 18.0001 91.4499 18.8885 87.9047 20.461Z" fill="#D9D9D9"/>
<path fill-rule="evenodd" clip-rule="evenodd" d="M511.905 62.461C506.859 59.0434 500.461 57 493.5 57C486.804 57 480.63 58.8903 475.679 62.0756C472.361 60.7441 468.657 60 464.749 60C450.528 60 439 69.8552 439 82.0123C439 94.1693 450.528 104.025 464.749 104.025C468.666 104.025 472.379 103.277 475.703 101.94C480.65 105.116 486.815 107 493.5 107C500.451 107 506.841 104.963 511.883 101.554C515.433 103.133 519.468 104.025 523.747 104.025C537.968 104.025 549.496 94.1694 549.496 82.0124C549.496 69.8553 537.968 60.0001 523.747 60.0001C519.477 60.0001 515.45 60.8885 511.905 62.461Z" fill="#D9D9D9"/>
<path fill-rule="evenodd" clip-rule="evenodd" d="M538.534 233.25L339.781 15L224.758 141.307L164.028 73L22 232.75H141.484L141.028 233.25H538.534Z" fill="#D9D9D9"/>
<path fill-rule="evenodd" clip-rule="evenodd" d="M472.712 121.25L429.411 14L386.11 121.25H408.67L373.12 209.091H397.902L355 315.098H417.411V377H442.411V315.098H504.822L461.92 209.091H485.703L450.153 121.25H472.712Z" fill="#02370E"/>
<path fill-rule="evenodd" clip-rule="evenodd" d="M182.879 232.068L150.552 152L118.225 232.068H135.068L108.527 297.646H127.029L95 376.787H141.593V423H160.257V376.787H206.851L174.822 297.646H192.577L166.037 232.068H182.879Z" fill="#02370E"/>
</svg>
